<svg version="1.1" viewBox="0.0 0.0 720.0 220.8005249343832" fill="none" stroke="none" stroke-linecap="square" stroke-miterlimit="10" xmlns:xlink="http://www.w3.org/1999/xlink" xmlns="http://www.w3.org/2000/svg"><clipPath id="gb858c06fa2_0_72.0"><path d="m0 0l720.0 0l0 220.80052l-720.0 0l0 -220.80052z" clip-rule="nonzero"/></clipPath><g clip-path="url(#gb858c06fa2_0_72.0)"><path fill="#212529" d="m0 0l720.0 0l0 220.80052l-720.0 0z" fill-rule="evenodd"/><path fill="#000000" fill-opacity="0.0" d="m165.0842 26.501312l565.98425 0l0 180.97638l-565.98425 0z" fill-rule="evenodd"/><path fill="#ffffff" d="m285.2971 119.17319q0 13.734375 -4.359375 23.671875q-4.359375 9.921875 -12.234375 15.515625l16.921875 13.28125l-8.53125 7.875l-19.984375 -15.890625q-4.6875 1.171875 -9.890625 1.171875q-11.203125 0 -19.859375 -5.5q-8.65625 -5.5 -13.453125 -15.6875q-4.78125 -10.1875 -4.90625 -23.59375l0 -6.84375q0 -13.671875 4.75 -24.140625q4.75 -10.484375 13.4375 -16.046875q8.703125 -5.578125 19.90625 -5.578125q11.453125 0 20.140625 5.546875q8.6875 5.53125 13.375 15.921875q4.6875 10.375 4.6875 24.234375l0 6.0625zm-12.5 -6.125q0 -16.734375 -6.671875 -25.8125q-6.671875 -9.078125 -19.03125 -9.078125q-11.796875 0 -18.59375 9.015625q-6.796875 9.015625 -7.0 25.03125l0 6.96875q0 16.265625 6.796875 25.640625q6.8125 9.375 18.921875 9.375q12.109375 0 18.75 -8.8125q6.640625 -8.828125 6.828125 -25.296875l0 -7.03125zm73.381836 43.484375q-7.03125 8.265625 -20.640625 8.265625q-11.265625 0 -17.15625 -6.53125q-5.890625 -6.546875 -5.953125 -19.375l0 -45.828125l12.03125 0l0 45.5q0 16.015625 13.03125 16.015625q13.796875 0 18.359375 -10.28125l0 -51.234375l12.046875 0l0 70.4375l-11.46875 0l-0.25 -6.96875zm73.499725 6.96875q-1.046875 -2.078125 -1.703125 -7.421875q-8.390625 8.71875 -20.046875 8.71875q-10.421875 0 -17.09375 -5.890625q-6.671875 -5.890625 -6.671875 -14.9375q0 -11.0 8.359375 -17.078125q8.375 -6.09375 23.546875 -6.09375l11.71875 0l0 -5.53125q0 -6.328125 -3.78125 -10.0625q-3.78125 -3.75 -11.125 -3.75q-6.453125 0 -10.8125 3.265625q-4.359375 3.25 -4.359375 7.875l-12.109375 0q0 -5.28125 3.734375 -10.1875q3.75 -4.921875 10.15625 -7.78125q6.421875 -2.859375 14.09375 -2.859375q12.1875 0 19.078156 6.09375q6.90625 6.078125 7.171875 16.75l0 32.421875q0 9.703125 2.46875 15.421875l0 1.046875l-12.6250305 0zm-20.0 -9.171875q5.671875 0 10.75 -2.921875q5.078125 -2.9375 7.359375 -7.625l0 -14.453125l-9.4375 0q-22.140625 0 -22.140625 12.953125q0 5.65625 3.765625 8.859375q3.78125 3.1875 9.703125 3.1875zm46.10135 -26.640625q0 -16.203125 7.671875 -26.0625q7.6875 -9.859375 20.125 -9.859375q12.375 0 19.59375 8.453125l0 -36.71875l12.046875 0l0 100.0l-11.0625 0l-0.59375 -7.546875q-7.21875 8.84375 -20.109375 8.84375q-12.25 0 -19.96875 -10.015625q-7.703125 -10.03125 -7.703125 -26.171875l0 -0.921875zm12.046875 1.375q0 11.984375 4.9375 18.75q4.953125 6.765625 13.671875 6.765625q11.46875 0 16.734375 -10.28125l0 -32.359375q-5.40625 -9.953125 -16.59375 -9.953125q-8.859375 0 -13.8125 6.84375q-4.9375 6.828125 -4.9375 20.234375zm89.11423 16.796875l16.40625 -52.796875l12.890625 0l-28.3125 81.3125q-6.578125 17.578125 -20.90625 17.578125l-2.28125 -0.203125l-4.484375 -0.84375l0 -9.765625l3.25 0.265625q6.125 0 9.53125 -2.484375q3.421875 -2.46875 5.640625 -9.046875l2.671875 -7.15625l-25.125 -69.65625l13.140625 0l17.578125 52.796875zm51.427246 -52.796875l0.390625 8.84375q8.078125 -10.140625 21.09375 -10.140625q22.34375 0 22.53125 25.1875l0 46.546875l-12.046875 0l0 -46.609375q-0.0625 -7.625 -3.484375 -11.265625q-3.40625 -3.640625 -10.640625 -3.640625q-5.859375 0 -10.296875 3.125q-4.421875 3.125 -6.890625 8.203125l0 50.1875l-12.046875 0l0 -70.4375l11.390625 0zm91.40857 71.734375q-14.328125 0 -23.3125 -9.40625q-8.984375 -9.40625 -8.984375 -25.15625l0 -2.21875q0 -10.484375 4.0 -18.71875q4.015625 -8.234375 11.203125 -12.875q7.203125 -4.65625 15.59375 -4.65625q13.734375 0 21.34375 9.046875q7.625 9.046875 7.625 25.90625l0 5.015625l-47.71875 0q0.265625 10.40625 6.09375 16.828125q5.828125 6.40625 14.8125 6.40625q6.375 0 10.796875 -2.59375q4.4375 -2.609375 7.75 -6.90625l7.359375 5.734375q-8.859375 13.59375 -26.5625 13.59375zm-1.5 -63.140625q-7.28125 0 -12.234375 5.3125q-4.953125 5.296875 -6.125 14.859375l35.296875 0l0 -0.90625q-0.53125 -9.171875 -4.953125 -14.21875q-4.421875 -5.046875 -11.984375 -5.046875z" fill-rule="nonzero"/><path fill="#ff9900" d="m137.34659 209.61119l-36.04036 -80.14929l14.30558 -2.1918945l21.408257 47.6093l24.576492 -54.655067l17.12407 -2.6237488z" fill-rule="evenodd"/><path stroke="#212529" stroke-width="1.0" stroke-linejoin="round" stroke-linecap="butt" d="m137.34659 209.61119l-36.04036 -80.14929l14.30558 -2.1918945l21.408257 47.6093l24.576492 -54.655067l17.12407 -2.6237488z" fill-rule="evenodd"/><path fill="#0000ff" d="m61.343903 3.009397l56.27974 125.159134l-14.869087 0.31044006l-40.338524 -89.707855l-41.1031 91.40819l-17.315498 0.36151123z" fill-rule="evenodd"/><path stroke="#212529" stroke-width="1.0" stroke-linejoin="round" stroke-linecap="butt" d="m61.343903 3.009397l56.27974 125.159134l-14.869087 0.31044006l-40.338524 -89.707855l-41.1031 91.40819l-17.315498 0.36151123z" fill-rule="evenodd"/><path fill="#0000ff" d="m185.93547 64.71106l26.04927 57.930313l-15.967911 0.5370712l-9.553864 -21.246582l-9.847275 21.899132l-17.529526 0.589592z" fill-rule="evenodd"/><path stroke="#212529" stroke-width="1.0" stroke-linejoin="round" stroke-linecap="butt" d="m185.93547 64.71106l26.04927 57.930313l-15.967911 0.5370712l-9.553864 -21.246582l-9.847275 21.899132l-17.529526 0.589592z" fill-rule="evenodd"/><path fill="#212529" d="m44.797684 119.45531l606.72394 0l0 16.309448l-606.72394 0z" fill-rule="evenodd"/><path stroke="#212529" stroke-width="1.0" stroke-linejoin="round" stroke-linecap="butt" d="m44.797684 119.45531l606.72394 0l0 16.309448l-606.72394 0z" fill-rule="evenodd"/></g></svg>